<svg data-brackets-id="2032" id="streams" class="svg-content" viewBox="0 0 750 400" width="100%" preserveAspectRatio="none"> <g transform="translate(50,0)"><g transform="translate(0,360)" fill="none" font-size="10" font-family="sans-serif" text-anchor="middle" class="axistext"><g class="tick" opacity="1" transform="translate(0.5,0)"><line stroke="#b8b8b8" y2="-4"></line><text fill="currentColor" y="3" dy="0.71em">1970</text></g><g class="tick" opacity="1" transform="translate(60.5,0)"><line stroke="#b8b8b8" y2="-4"></line><text fill="currentColor" y="3" dy="0.71em">1975</text></g><g class="tick" opacity="1" transform="translate(120.5,0)"><line stroke="#b8b8b8" y2="-4"></line><text fill="currentColor" y="3" dy="0.71em">1980</text></g><g class="tick" opacity="1" transform="translate(180.5,0)"><line stroke="#b8b8b8" y2="-4"></line><text fill="currentColor" y="3" dy="0.71em">1985</text></g><g class="tick" opacity="1" transform="translate(240.5,0)"><line stroke="#b8b8b8" y2="-4"></line><text fill="currentColor" y="3" dy="0.71em">1990</text></g><g class="tick" opacity="1" transform="translate(300.5,0)"><line stroke="#b8b8b8" y2="-4"></line><text fill="currentColor" y="3" dy="0.71em">1995</text></g><g class="tick" opacity="1" transform="translate(360.5,0)"><line stroke="#b8b8b8" y2="-4"></line><text fill="currentColor" y="3" dy="0.71em">2000</text></g><g class="tick" opacity="1" transform="translate(420.5,0)"><line stroke="#b8b8b8" y2="-4"></line><text fill="currentColor" y="3" dy="0.71em">2005</text></g><g class="tick" opacity="1" transform="translate(480.5,0)"><line stroke="#b8b8b8" y2="-4"></line><text fill="currentColor" y="3" dy="0.71em">2010</text></g><g class="tick" opacity="1" transform="translate(540.5,0)"><line stroke="#b8b8b8" y2="-4"></line><text fill="currentColor" y="3" dy="0.71em">2015</text></g><g class="tick" opacity="1" transform="translate(600.5,0)"><line stroke="#b8b8b8" y2="-4"></line><text fill="currentColor" y="3" dy="0.71em">2020</text></g></g><path class="myArea" id="Other" d="M0,360C68.00000000000001,290.4,136,220.79999999999998,204.00000000000003,220.79999999999998C240.00000000000003,220.79999999999998,276,340.8,312,340.8C332,340.8,352,213.59999999999997,372,213.59999999999997C384,213.59999999999997,396.00000000000006,307.2,408.00000000000006,307.2C420.00000000000006,307.2,432,275.51818181818186,444,261.6C476,224.48484848484847,508,177.6,540,177.6C548,177.6,556,258.4,564,271.2C568,277.6,572,274.4,576,280.8C580,287.20000000000005,584,309.6,588,309.6C592,309.6,596,260.4,600,211.2L600,360C596,360,592,360,588,360C584,360,580,360,576,360C572,360,568,360,564,360C556,360,548,360,540,360C508,360,476,360,444,360C432,360,420.00000000000006,360,408.00000000000006,360C396.00000000000006,360,384,360,372,360C352,360,332,360,312,360C276,360,240.00000000000003,360,204.00000000000003,360C136,360,68.00000000000001,360,0,360Z" style="fill: rgb(253, 231, 218); opacity: 0;"></path><path class="myArea" id="AbolitionDefunding" d="M0,350.40000000000003C68.00000000000001,285.6,136,220.79999999999998,204.00000000000003,220.79999999999998C240.00000000000003,220.79999999999998,276,340.8,312,340.8C332,340.8,352,213.59999999999997,372,213.59999999999997C384,213.59999999999997,396.00000000000006,307.2,408.00000000000006,307.2C420.00000000000006,307.2,432,275.76363636363635,444,261.6C476,223.830303030303,508,170.4,540,170.4C548,170.4,556,249.33333333333331,564,266.4C568,274.93333333333334,572,273.6,576,280.8C580,288,584,309.6,588,309.6C592,309.6,596,256.8,600,204L600,211.2C596,260.4,592,309.6,588,309.6C584,309.6,580,287.20000000000005,576,280.8C572,274.4,568,277.6,564,271.2C556,258.4,548,177.6,540,177.6C508,177.6,476,224.48484848484847,444,261.6C432,275.51818181818186,420.00000000000006,307.2,408.00000000000006,307.2C396.00000000000006,307.2,384,213.59999999999997,372,213.59999999999997C352,213.59999999999997,332,340.8,312,340.8C276,340.8,240.00000000000003,220.79999999999998,204.00000000000003,220.79999999999998C136,220.79999999999998,68.00000000000001,290.4,0,360Z" style="fill: rgb(104, 58, 32); opacity: 0.8;"></path><path class="myArea" id="LivingWage" d="M0,348C68.00000000000001,284.4,136,220.79999999999998,204.00000000000003,220.79999999999998C240.00000000000003,220.79999999999998,276,340.8,312,340.8C332,340.8,352,213.59999999999997,372,213.59999999999997C384,213.59999999999997,396.00000000000006,304.8,408.00000000000006,304.8C420.00000000000006,304.8,432,275.42727272727274,444,261.6C476,224.72727272727272,508,163.20000000000002,540,163.20000000000002C548,163.20000000000002,556,245.33333333333331,564,264C568,273.3333333333333,572,273.2,576,280.8C580,288.40000000000003,584,309.6,588,309.6C592,309.6,596,255.60000000000002,600,201.60000000000002L600,204C596,256.8,592,309.6,588,309.6C584,309.6,580,288,576,280.8C572,273.6,568,274.93333333333334,564,266.4C556,249.33333333333331,548,170.4,540,170.4C508,170.4,476,223.830303030303,444,261.6C432,275.76363636363635,420.00000000000006,307.2,408.00000000000006,307.2C396.00000000000006,307.2,384,213.59999999999997,372,213.59999999999997C352,213.59999999999997,332,340.8,312,340.8C276,340.8,240.00000000000003,220.79999999999998,204.00000000000003,220.79999999999998C136,220.79999999999998,68.00000000000001,285.6,0,350.40000000000003Z" style="fill: rgb(220, 177, 125); opacity: 0.8;"></path><path class="myArea" id="MinorityStudentRecruitment" d="M0,345.59999999999997C68.00000000000001,264,136,182.39999999999998,204.00000000000003,182.39999999999998C240.00000000000003,182.39999999999998,276,340.8,312,340.8C332,340.8,352,206.39999999999998,372,206.39999999999998C384,206.39999999999998,396.00000000000006,295.20000000000005,408.00000000000006,295.20000000000005C420.00000000000006,295.20000000000005,432,252.93636363636364,444,235.2C476,187.9030303030302,508,141.6,540,141.6C548,141.6,556,218.4,564,242.4C568,254.4,572,260.4,576,271.2C580,282,584,307.2,588,307.2C592,307.2,596,243.6,600,180L600,201.60000000000002C596,255.60000000000002,592,309.6,588,309.6C584,309.6,580,288.40000000000003,576,280.8C572,273.2,568,273.3333333333333,564,264C556,245.33333333333331,548,163.20000000000002,540,163.20000000000002C508,163.20000000000002,476,224.72727272727272,444,261.6C432,275.42727272727274,420.00000000000006,304.8,408.00000000000006,304.8C396.00000000000006,304.8,384,213.59999999999997,372,213.59999999999997C352,213.59999999999997,332,340.8,312,340.8C276,340.8,240.00000000000003,220.79999999999998,204.00000000000003,220.79999999999998C136,220.79999999999998,68.00000000000001,284.4,0,348Z" style="fill: rgb(189, 123, 69); opacity: 0.8;"></path><path class="myArea" id="SchoolClimate" d="M0,333.59999999999997C68.00000000000001,229.2,136,124.80000000000001,204.00000000000003,124.80000000000001C240.00000000000003,124.80000000000001,276,336,312,336C332,336,352,165.6,372,165.6C384,165.6,396.00000000000006,278.4,408.00000000000006,278.4C420.00000000000006,278.4,432,249.4181818181818,444,232.8C476,188.48484848484847,508,69.60000000000001,540,69.60000000000001C548,69.60000000000001,556,189.06666666666663,564,220.79999999999998C568,236.66666666666666,572,240,576,254.4C580,268.8,584,307.2,588,307.2C592,307.2,596,234,600,160.79999999999998L600,180C596,243.6,592,307.2,588,307.2C584,307.2,580,282,576,271.2C572,260.4,568,254.4,564,242.4C556,218.4,548,141.6,540,141.6C508,141.6,476,187.9030303030302,444,235.2C432,252.93636363636364,420.00000000000006,295.20000000000005,408.00000000000006,295.20000000000005C396.00000000000006,295.20000000000005,384,206.39999999999998,372,206.39999999999998C352,206.39999999999998,332,340.8,312,340.8C276,340.8,240.00000000000003,182.39999999999998,204.00000000000003,182.39999999999998C136,182.39999999999998,68.00000000000001,264,0,345.59999999999997Z" style="fill: rgb(109, 59, 32); opacity: 0.8;"></path><line x1="0" x2="0" y1="360" y2="0" class="annotationline"></line><g transform="translate(12,23.999999999999993)" class="textannotationg"><text y="0" dy="0.1" x="0" class="textannotation visualizationtext"><tspan x="0" y="0" dy="0.1em">Student Body</tspan><tspan x="0" y="0" dy="1.1em">Referendum 1970</tspan></text></g></g></svg>